<svg xmlns="http://www.w3.org/2000/svg" width="57" height="66"  stroke="none" stroke-linecap="round" stroke-linejoin="round" fill="#202020" fill-rule="nonzero"><path d="M47.958 20.914v23.073L28.365 55.474l-.18.164v8.697l.18.164 27.586-15.934v-32.13h-.263l-7.778 4.35v.18"/><path d="M8.705 44.15l19.692 11.405V64.5L.582 48.5v-32h.28l7.762 4.513.082.263V44.25"/><path d="M8.705 21.226L.5 16.5 28.3.5l27.65 15.934-7.992 4.48L28.265 9.706 8.672 21.193M28.02 41.5l-.213-.213V32.65l.213-.115v-.213l7.417-4.332h.23v8.927l-7.696 4.562"/><path d="M20.192 37.243V27.97h.213l7.55 4.398v9.157l-7.828-4.283"/><path d="M27.889 23.425l-7.696 4.562L28.02 32.5l7.696-4.496-7.828-4.628M18.425 47.17l-.213-.213v-8.665l.213-.115v-.213l7.417-4.332h.23v8.927l-7.687 4.561"/><path d="M10.609 42.888v-9.272h.213l7.55 4.398v9.157l-7.762-4.283"/><path d="M18.321 29.07l-7.713 4.546 7.828 4.562 7.696-4.496-7.828-4.628m19.989 18.33l-.213-.213v-8.665l.213-.115v-.213l7.417-4.332h.23v8.927l-7.696 4.562"/><path d="M30.465 43.1v-9.27h.246l7.55 4.398v9.157L30.432 43.1"/><path d="M38.161 29.218l-7.696 4.562 7.828 4.562 7.696-4.496-7.828-4.628M28.709 53.03l-.213-.213V44.15l.213-.115v-.213l7.416-4.322h.23v8.927l-7.696 4.562"/><path d="M20.865 48.746V39.5h.213l7.55 4.398v9.157l-7.762-4.3"/><path d="M28.578 34.93l-7.713 4.57 7.844 4.496 7.696-4.496-7.828-4.562m-.557-5.72l-.213-.213v-8.632l.213-.115v-.213l7.417-4.332h.23v8.927l-7.647 4.578"/><path d="M20.192 24.968v-9.272h.213l7.55 4.398v9.124l-7.828-4.283"/><path d="M27.889 11.167l-7.696 4.562 7.828 4.562 7.696-4.496-7.828-4.628M18.425 34.88l-.213-.213v-8.73l.213-.115v-.213l7.417-4.332h.23v8.927l-7.696 4.562"/><path d="M10.609 30.613V21.34h.213l7.55 4.398v9.157l-7.762-4.283"/><path d="M18.321 16.795l-7.713 4.546 7.828 4.595 7.696-4.496-7.828-4.628m19.989 18.281l-.213-.213v-8.65l.213-.115v-.213l7.417-4.332h.23v8.927l-7.695 4.563"/><path d="M30.465 30.86v-9.305h.246l7.516 4.382v9.157l-7.762-4.234"/><path d="M38.161 17l-7.696 4.56 7.828 4.562 7.696-4.496-7.828-4.628m-9.452 23.707l-.213-.213v-8.615l.213-.115v-.213l7.417-4.332h.23v8.927l-7.647 4.562"/><path d="M20.865 36.47V27.2h.213l7.55 4.398v9.108l-7.763-4.236"/><path d="M28.578 22.654L20.865 27.2l7.828 4.562 7.696-4.496-7.8-4.6"/></svg>