<svg xmlns="http://www.w3.org/2000/svg" width="107" height="25"  stroke="#000" stroke-linecap="round" stroke-linejoin="round" fill="#fff" fill-rule="evenodd"><path d="M33.169 24.0048V.9598h1.25v3.625c.1476-.1608.2839-.3315.408-.511 1.044-2.166 3.246-3.533 5.65-3.506 2.85-.085 5.166.97 6.527 3.506a11.27 11.27 0 0 1 .272 10.331c-1.268 2.842-4.4 4.255-7.753 3.736a6.27 6.27 0 0 1-5.004-3.302v9.165zm1.25-14.893l.28 2.706c.494 3.08 2.315 4.9 5.174 5.242 2.7686.4552 5.4731-1.1092 6.459-3.736 1.112-2.65 1.03-5.65-.22-8.238-1.0483-2.3461-3.5239-3.714-6.068-3.353-2.3826.1733-4.394 1.8364-5.012 4.144a28.613 28.613 0 0 0-.613 3.234zm39.498 3.132c-.3921 3.356-3.2086 5.9031-6.587 5.957-5.242.264-7.702-3.217-8.093-7.234a11.59 11.59 0 0 1 1.021-6.383C61.5988 1.7856 64.5973.1779 67.67.6098c2.9192.2481 5.3526 2.3355 6.042 5.183.2663 1.2648.4622 2.5435.587 3.83H60.532c-.255 3.642 1.702 6.57 4.476 7.276 3.455.85 6.408-.647 7.48-3.932.238-.843.672-.962 1.438-.723zm-13.395-3.787h12.314c-.077-3.88-2.493-6.7-5.77-6.732-3.7-.06-6.383 2.647-6.544 6.732zm15.94 3.872h1.207a4.84 4.84 0 0 0 2.842 4.17 7.43 7.43 0 0 0 6.451-.17 2.9 2.9 0 0 0 1.702-2.851c.064-1.1737-.6586-2.2474-1.77-2.63-1.328-.494-2.74-.766-4.093-1.2-1.4079-.4009-2.7846-.9042-4.119-1.506-2.18-1.064-2.315-5.208.153-6.52a8.69 8.69 0 0 1 8.306-.128c1.594.88 2.475 2.657 2.213 4.46h-1.035c0-.05-.094-.094-.094-.145-.128-3.3-2.902-4.332-5.88-4.042-.9.1-1.753.372-2.553.774a2.55 2.55 0 0 0-1.48 2.553 2.55 2.55 0 0 0 1.702 2.4c1.3.477 2.68.783 4.025 1.157l3.25.85c1.5122.4964 2.5615 1.8742 2.638 3.464.26 1.745-.63 3.46-2.204 4.255-2.842 1.608-7.523 1.183-9.608-.85-1.067-1.073-1.662-2.53-1.65-4.042zm28.78-6.374h-1.132c0-.153-.06-.3-.077-.417-.0373-1.7488-1.2941-3.2326-3.013-3.557a7.43 7.43 0 0 0-4.774.23c-1.2365.3539-2.0922 1.4799-2.102 2.766-.0444 1.2676.8091 2.3914 2.042 2.689l5.174 1.328a14.39 14.39 0 0 1 1.65.502c1.65.6 2.77 2.132 2.82 3.883s-.9823 3.3593-2.6 4.04a9.47 9.47 0 0 1-7.659.077c-2.0407-.88-3.3176-2.9377-3.2-5.157h1.106a6.205 6.205 0 0 0 3.682 4.465 6.204 6.204 0 0 0 5.764-.516c1.0525-.5474 1.6905-1.657 1.634-2.842a2.63 2.63 0 0 0-1.796-2.613c-1.328-.494-2.74-.757-4.093-1.2a30.151 30.151 0 0 1-4.144-1.489c-2.128-1.047-2.298-5.157.128-6.468a8.57 8.57 0 0 1 8.442-.094c1.5141.9036 2.3518 2.616 2.136 4.366zm-74.13 11.83c-.9221.3487-1.9595-.0457-2.417-.919l-4.4-6.085-.638-.85-5.106 6.944c-.4305.8354-1.4142 1.2215-2.298.902l6.578-8.825-6.12-7.974a2.035 2.035 0 0 1 2.425.85l4.56 6.16 4.587-6.136a1.83 1.83 0 0 1 2.281-.851l-2.375 3.151-3.217 4.187a.85.85 0 0 0 0 1.268l6.127 8.178zM59.042.8928v1.2c-1.7406-.1142-3.4482.5137-4.7001 1.7283a6.17 6.17 0 0 0-1.8699 4.6457q0 4.204 0 8.408v.953h-1.217V.9678h1.2v3.455c1.472-2.52 3.744-3.455 6.595-3.523zM.502 8.8518l.536-2.647c1.472-5.234 7.472-7.412 11.6-4.17 2.417 1.898 3.02 4.587 2.902 7.617H1.923c-.22 5.412 3.685 8.68 8.68 7.012 1.646-.6 2.885-1.968 3.293-3.668.264-.85.7-.996 1.498-.75-.2697 2.0992-1.4865 3.9591-3.302 5.047-3.0369 1.6608-6.7974 1.1802-9.319-1.191-1.216-1.367-1.95-3.095-2.093-4.92 0-.3-.1-.58-.17-.85q-.01-.757-.01-1.48zm1.438-.366h12.314c-.077-3.923-2.553-6.706-5.855-6.732-3.676-.05-6.306 2.672-6.468 6.715z" stroke="none" fill-rule="nonzero" fill="#e8e8e8"/></svg>